<svg xmlns="http://www.w3.org/2000/svg"  viewBox="0 0 64 64" width="100px" height="100px"><rect width="50" height="50" x="7" y="7" fill="#6e91ce" rx="6" ry="6"/><path fill="#80a6dd" d="M11,7H53a4,4,0,0,1,4,4v0a3,3,0,0,1-3,3H10a3,3,0,0,1-3-3v0a4,4,0,0,1,4-4Z"/><path fill="#8d6c9f" d="M51,6H13a7,7,0,0,0-7,7V51a7,7,0,0,0,7,7H51a7,7,0,0,0,7-7V13A7,7,0,0,0,51,6Zm5,45a5,5,0,0,1-5,5H13a5,5,0,0,1-5-5V13a5,5,0,0,1,5-5H51a5,5,0,0,1,5,5Z"/><path fill="#8d6c9f" d="M14 16a1 1 0 0 0 1-1V13a1 1 0 0 0-2 0v2A1 1 0 0 0 14 16zM10 15V13a1 1 0 0 0-2 0v2a1 1 0 0 0 2 0zM29 16a1 1 0 0 0 1-1V13a1 1 0 0 0-2 0v2A1 1 0 0 0 29 16zM34 16a1 1 0 0 0 1-1V13a1 1 0 0 0-2 0v2A1 1 0 0 0 34 16zM39 16a1 1 0 0 0 1-1V13a1 1 0 0 0-2 0v2A1 1 0 0 0 39 16zM44 16a1 1 0 0 0 1-1V13a1 1 0 0 0-2 0v2A1 1 0 0 0 44 16zM49 16a1 1 0 0 0 1-1V13a1 1 0 0 0-2 0v2A1 1 0 0 0 49 16zM54 12a1 1 0 0 0-1 1v2a1 1 0 0 0 2 0V13A1 1 0 0 0 54 12zM19 16a1 1 0 0 0 1-1V13a1 1 0 0 0-2 0v2A1 1 0 0 0 19 16zM24 16a1 1 0 0 0 1-1V13a1 1 0 0 0-2 0v2A1 1 0 0 0 24 16z"/><path fill="#faefde" d="M31.08,45.89h2.33a2,2,0,0,0,1.06-.46,1.71,1.71,0,0,0,.32-1s0-3.13,1.41-3.59,3.27,3,5.22,4.36A3.69,3.69,0,0,0,44,46l5.21-.07s2.72-.17,1.43-2.31c-.11-.18-.75-1.58-3.87-4.48S44,36.55,47.89,31.31c2.4-3.19,3.35-5.14,3.05-6s-2-.59-2-.59l-5.86,0a1.33,1.33,0,0,0-.76.13,1.64,1.64,0,0,0-.52.63,34,34,0,0,1-2.17,4.57c-2.61,4.43-3.66,4.67-4.08,4.39-1-.64-.74-2.58-.74-4,0-4.3.65-6.09-1.27-6.55a10,10,0,0,0-2.74-.27c-2.09,0-3.86,0-4.87.5-.67.33-1.18,1.05-.87,1.1a2.63,2.63,0,0,1,1.73.87,5.66,5.66,0,0,1,.58,2.65s.35,5.06-.81,5.69c-.79.43-1.87-.45-4.2-4.47a37.4,37.4,0,0,1-2.09-4.34,1.74,1.74,0,0,0-.48-.65,2.43,2.43,0,0,0-.9-.36l-5.57,0s-.84,0-1.14.39,0,1,0,1,4.36,10.21,9.3,15.35a13.38,13.38,0,0,0,9.67,4.41Z"/><path fill="#8d6c9f" d="M43.72,47a5.1,5.1,0,0,1-2.87-1,14.1,14.1,0,0,1-2.43-2.38c-.59-.68-1.58-1.81-2-1.84s-.68,1.41-.67,2.62a2.63,2.63,0,0,1-.59,1.72,2.9,2.9,0,0,1-1.69.78H31.11a14.38,14.38,0,0,1-10.42-4.71c-5-5.22-9.32-15.23-9.5-15.65a2.09,2.09,0,0,1,.18-2,2.69,2.69,0,0,1,1.88-.74l5.59,0a.47.47,0,0,1,.17,0,3.38,3.38,0,0,1,1.33.54,2.7,2.7,0,0,1,.82,1.08,36.85,36.85,0,0,0,2,4.21c1.73,3,2.54,3.79,2.86,4a14.37,14.37,0,0,0,.29-4.65,4.84,4.84,0,0,0-.39-2.13,1.71,1.71,0,0,0-1.06-.47,1.1,1.1,0,0,1-.95-.91c-.15-.9.85-1.75,1.51-2.07,1.21-.59,3-.62,5.32-.6a11,11,0,0,1,3,.3c2.28.55,2.2,2.51,2.1,5,0,.73-.06,1.57-.06,2.54,0,.23,0,.48,0,.73a7,7,0,0,0,.16,2.18c.36-.28,1.23-1.15,2.82-3.86a33,33,0,0,0,2.09-4.42,2.59,2.59,0,0,1,.94-1.14,2.27,2.27,0,0,1,1.32-.28l5.76,0c.54-.06,2.54-.17,3,1.25.32.89.19,2.4-3.2,6.92-.5.67-.95,1.25-1.34,1.75a8.94,8.94,0,0,0-1.75,2.66c0,.32.82,1.08,1.77,2l.09.09a22,22,0,0,1,4,4.68,2.44,2.44,0,0,1,.28,2.49,3.11,3.11,0,0,1-2.49,1.35L44.09,47Zm-7.24-7.22c1.24,0,2.32,1.24,3.45,2.53a12.8,12.8,0,0,0,2.05,2,2.86,2.86,0,0,0,1.86.63H44l5.21-.07a1.51,1.51,0,0,0,.8-.29h0a1.2,1.2,0,0,0-.21-.51l-.05-.1a19.54,19.54,0,0,0-3.64-4.17L46,39.74c-3-2.82-3.25-3.41-.24-7.3.38-.5.82-1.07,1.32-1.73,2.48-3.3,2.85-4.55,2.9-4.93a3.23,3.23,0,0,0-1,0H48.9l-5.86,0h-.27l-.1.18a34,34,0,0,1-2.21,4.66c-2.37,4-3.53,4.74-4.28,4.92a1.55,1.55,0,0,1-1.2-.19c-1.3-.84-1.25-2.66-1.21-4.12,0-.23,0-.46,0-.68,0-1,0-1.87.07-2.62.11-2.7,0-2.82-.57-3a9.1,9.1,0,0,0-2.51-.24,19,19,0,0,0-3.88.22,2.76,2.76,0,0,1,.69.66,6.25,6.25,0,0,1,.77,3.26c.18,2.52.09,5.78-1.33,6.55-1.75,1-3.3-1-5.55-4.85A38.17,38.17,0,0,1,19.3,26.1a.78.78,0,0,0-.15-.22,1.35,1.35,0,0,0-.41-.17l-5.46,0-.23,0c.08.18,4.36,10.09,9.09,15A12.3,12.3,0,0,0,31,44.89h2.32a1.08,1.08,0,0,0,.4-.15,1.23,1.23,0,0,0,.05-.33c0-.64,0-3.9,2.1-4.55A1.93,1.93,0,0,1,36.48,39.76Z"/></svg>